<svg xmlns="http://www.w3.org/2000/svg" viewBox="0 0 24 24" width="24" height="24" preserveAspectRatio="xMidYMid meet"><g transform="scale(0.5)"><g transform="translate(2.01557 1.98809) scale(0.91617)"><g id="v9If8E.tif">
    <path d="M27.35,37.34h-.2l-1-.11c-.77-.08-1.55-.11-2.32-.24a23.38,23.38,0,0,1-10.08-4.54c-1.47-1.11-2.82-2.37-4.27-3.6L5.27,32c-1.06.8-2.11,1.59-3.18,2.36a1.31,1.31,0,0,1-1.61-.08,1.12,1.12,0,0,1-.42-1.34C.7,30.09,1.36,27.25,2,24.41a2,2,0,0,0,0-.84C1.36,20.7.7,17.85.05,15a1.22,1.22,0,0,1,1.2-1.6,2.39,2.39,0,0,1,1.25.44c1.33,1,2.62,2,3.93,3l3.12,2.35c.76-.7,1.46-1.39,2.19-2a26.8,26.8,0,0,1,8.68-5.25A19.51,19.51,0,0,1,30.57,11a24.62,24.62,0,0,1,10.81,4.89,26.81,26.81,0,0,1,6,6.31,2.87,2.87,0,0,1,.05,3.52c-.22.31-.41.63-.63.93a27.28,27.28,0,0,1-9.4,8,22,22,0,0,1-8,2.51ZM32.62,24a1.94,1.94,0,0,0,2,2,2,2,0,1,0,0-4A2,2,0,0,0,32.62,24Z" style="stroke: rgb(59, 59, 59); fill: rgb(12, 183, 235);" />
  </g>
</g></g></svg>