<svg xmlns="http://www.w3.org/2000/svg" viewBox="0 0 24 24" width="24" height="24" preserveAspectRatio="xMidYMid meet"><g transform="scale(0.5)"><g transform="translate(1.9945 2) scale(0.916667)"><g id="VhW43u.tif">
    <path d="M5,48a5.44,5.44,0,0,1-3.67-1.93A4.86,4.86,0,0,1,.5,40.68a5,5,0,0,1,4.7-3.13A13.63,13.63,0,0,0,11.38,36,14.55,14.55,0,0,0,17,30.81c2.46-3.75,4.15-7.89,6.15-11.87.76-1.51,1.7-2.93,2.55-4.39.24-.41.55-.43,1-.24,1.24.56,2.49,1.12,3.75,1.67a.91.91,0,0,1,.63,1c0,2.32,0,4.65,0,7,0,.62.19.83.81.82,2.85,0,5.7,0,8.55,0a1.86,1.86,0,0,1,1.15.49c.86.8,1.62,1.7,2.46,2.52.44.42.4.73.1,1.2a32.22,32.22,0,0,1-6.3,7.08A48.5,48.5,0,0,1,16.11,46.77a44.39,44.39,0,0,1-8.9,1.09c-.49,0-1,.09-1.48.14Z" style="stroke: rgb(59, 59, 59); fill: rgb(255, 0, 0);" />
    <path d="M42.63,0a8.32,8.32,0,0,1,2.25,5.38A12.58,12.58,0,0,1,43.58,12a.85.85,0,0,0,.21,1.17,13.32,13.32,0,0,1,3.84,6.88,13,13,0,0,1,0,6c0,.14-.08.29-.13.42a1.11,1.11,0,0,1-.21.25l-1.54-1.62c-.94-1-1.88-2-2.8-3a1.57,1.57,0,0,0-1.3-.57c-2.47,0-4.94,0-7.5,0,0-.3,0-.56,0-.83,0-1.87,0-3.74,0-5.62A1,1,0,0,0,33.43,14c-1.76-.76-3.5-1.57-5.24-2.37-.29-.13-.56-.29-.94-.49A9.85,9.85,0,0,1,31,9.5a13.38,13.38,0,0,1,7.94.47c.49.19.74.09,1-.44a7.11,7.11,0,0,0,.66-3.92,9,9,0,0,0-.79-2.15.89.89,0,0,1,.15-1.15L42.33,0Z" style="stroke: rgb(59, 59, 59); fill: rgb(255, 0, 0);" />
  </g>
</g></g></svg>