<svg xmlns="http://www.w3.org/2000/svg" viewBox="0 0 24 24" width="24" height="24" preserveAspectRatio="xMidYMid meet"><g transform="scale(0.5)"><g transform="translate(2 1.99588) scale(0.916228)"><path d="M47.36,17.48A20.06,20.06,0,0,0,35.52,3.55a11.43,11.43,0,0,0-9.17,0,14.22,14.22,0,0,0-8.22,9.26,14,14,0,0,1-7.68,8.67c-1.56.75-3.18,1.37-4.77,2.08-3.89,1.72-6,4.63-5.64,9.34s2.94,7.82,7,9.79a29.56,29.56,0,0,0,9.39,2.51,30.42,30.42,0,0,0,8.31-.09,30,30,0,0,0,10.55-3.63,32.27,32.27,0,0,0,9.43-8.16A15.84,15.84,0,0,0,48,22.77,34.41,34.41,0,0,0,47.36,17.48ZM41.43,28.73A20.47,20.47,0,0,1,38,32.94a24.58,24.58,0,0,1-9.33,5.84,26.48,26.48,0,0,1-9.07,1.39A28.49,28.49,0,0,1,10,38.31c-2.24-.93-4.08-2.3-4.7-4.85A3.51,3.51,0,0,1,6,30.24a12.92,12.92,0,0,1,5.1-3.39,29.17,29.17,0,0,0,7.35-4.64,15.13,15.13,0,0,0,4.37-7,11.81,11.81,0,0,1,2.76-5.05A6.94,6.94,0,0,1,31.51,8a10.59,10.59,0,0,1,6.19,3.17A15,15,0,0,1,42.56,20C43.05,23,43,26,41.43,28.73Z" style="stroke: rgb(59, 59, 59); fill: rgb(220, 28, 28);" />
  <path d="M34,11.75c-2.66-1.79-5.4-1.29-7.17,1.36a10.6,10.6,0,0,0-1.22,2.62A18.55,18.55,0,0,1,19,25.26,49,49,0,0,1,11,30,10.54,10.54,0,0,0,9,31.32a1.83,1.83,0,0,0,0,3.08A12.72,12.72,0,0,0,12,36.19,19.7,19.7,0,0,0,19,37.32a26.44,26.44,0,0,0,13.14-3.45A22,22,0,0,0,37.94,29c2.19-2.66,2.41-5.77,1.78-9A12.84,12.84,0,0,0,34,11.75ZM32.24,24a2.59,2.59,0,0,1-2.86-2.59,2.71,2.71,0,1,1,5.41-.14A2.69,2.69,0,0,1,32.24,24Z" style="stroke: rgb(59, 59, 59); fill: rgb(220, 28, 28);" />
</g></g></svg>