<svg xmlns="http://www.w3.org/2000/svg" viewBox="0 0 24 24" width="24" height="24" preserveAspectRatio="xMidYMid meet"><g transform="scale(0.5)"><g transform="translate(2.00687 2.00641) scale(0.916247)"><g id="_Group_" data-name="&lt;Group&gt;">
    <path d="M20.09,2.75a10,10,0,0,1,2.79,7.45,9.86,9.86,0,0,1-2.79,7.41,9.89,9.89,0,0,1-7.21,2.72,10,10,0,0,1-7.25-2.72A9.8,9.8,0,0,1,2.81,10.2,9.91,9.91,0,0,1,5.63,2.75,9.94,9.94,0,0,1,12.88,0,9.83,9.83,0,0,1,20.09,2.75ZM40.88.6,14.47,47.4H7.05L33.53.6ZM9.3,14.2a4.47,4.47,0,0,0,3.51,1.49,4.49,4.49,0,0,0,3.54-1.52,5.73,5.73,0,0,0,1.36-4,5.81,5.81,0,0,0-1.36-4,4.49,4.49,0,0,0-3.54-1.53A4.4,4.4,0,0,0,9.3,6.16,5.94,5.94,0,0,0,8,10.2,5.81,5.81,0,0,0,9.3,14.2ZM42.37,30.39a9.8,9.8,0,0,1,2.82,7.41A9.57,9.57,0,0,1,35.12,48a9.56,9.56,0,0,1-10-10.2,9.56,9.56,0,0,1,10-10.13A10,10,0,0,1,42.37,30.39ZM31.61,41.84a4.43,4.43,0,0,0,3.51,1.53,4.49,4.49,0,0,0,3.54-1.53,5.81,5.81,0,0,0,1.36-4,5.73,5.73,0,0,0-1.36-4,4.52,4.52,0,0,0-3.54-1.52,4.46,4.46,0,0,0-3.51,1.52,5.86,5.86,0,0,0-1.32,4A5.94,5.94,0,0,0,31.61,41.84Z" style="stroke: rgb(59, 59, 59); fill: rgb(255, 0, 0);" />
  </g>
</g></g></svg>