<svg xmlns="http://www.w3.org/2000/svg" viewBox="0 0 24 24" width="24" height="24" preserveAspectRatio="xMidYMid meet"><g transform="scale(0.5)"><g transform="translate(1.99358 1.99496) scale(0.9168)"><g id="N0uqH1">
    <path d="M43.22,33.57a7.22,7.22,0,0,1-14.44,0H19.19a7.09,7.09,0,0,1-3,5.84,6.83,6.83,0,0,1-4.28,1.31,7,7,0,0,1-5-2.14,7.08,7.08,0,0,1-2.05-5H1.31c-.9,0-1.29-.42-1.3-1.31,0-.69,0-1.38,0-2.07v-6a4.87,4.87,0,0,1,3.23-4.75,1.07,1.07,0,0,0,.52-.55C4.88,16.12,6,13.29,7.11,10.47a4.77,4.77,0,0,1,4.77-3.25H27.43a4.92,4.92,0,0,1,4.09,1.93c2.54,3.21,5.12,6.39,7.67,9.59a1.16,1.16,0,0,0,1.05.5,7.34,7.34,0,0,1,4.19,1A7,7,0,0,1,48,26.39c0,1.95,0,3.91,0,5.86,0,.91-.42,1.3-1.34,1.32H43.22Zm-9.8-14.38a1.2,1.2,0,0,0-.13-.23q-2.7-3.37-5.42-6.73a.92.92,0,0,0-.61-.26H21.51L21,12v7.2Zm-24.64,0h8.6V12l-.49,0c-1.61,0-3.23,0-4.84,0a.58.58,0,0,0-.63.44c-.73,1.91-1.48,3.81-2.23,5.71ZM8.4,33.79a3.61,3.61,0,0,0,3.86,3.41A3.61,3.61,0,0,0,11.73,30,3.6,3.6,0,0,0,8.4,33.79Zm24-.41a3.6,3.6,0,0,0,3.3,3.82A3.62,3.62,0,0,0,36.29,30,3.6,3.6,0,0,0,32.41,33.38Z" style="stroke: rgb(59, 59, 59); stroke-miterlimit: 1; fill: rgb(212, 209, 23);" />
  </g>
</g></g></svg>