<svg xmlns="http://www.w3.org/2000/svg" viewBox="0 0 24 24" width="24" height="24" preserveAspectRatio="xMidYMid meet"><g transform="scale(0.5)"><g transform="translate(2 2.00687) scale(0.916628)"><g id="JpZ9Mi.tif">
    <path d="M0,9.14c3,0,5.76-.22,8.51,0a19.58,19.58,0,0,1,10.38,4.26,20.27,20.27,0,0,1,7.34,10.92,20.66,20.66,0,0,1,.68,4.88c.09,4.65,0,9.31,0,14,0,1.22-.55,1.77-1.78,1.78H22.75a1.48,1.48,0,0,1-1.65-1.67V31.09c0-1.13-.05-1.22-1.16-1.23A19.24,19.24,0,0,1,8.08,25.5,19.9,19.9,0,0,1,.22,11.78C.12,10.92.07,10.06,0,9.14Z" style="paint-order: stroke; stroke: rgb(59, 59, 59); fill: rgb(83, 176, 67);" />
    <path d="M48,3a19.83,19.83,0,0,1-2.19,9.35,20.9,20.9,0,0,1-10.58,9.87,38.89,38.89,0,0,1-5.6,1.54c-.14,0-.49-.26-.55-.47a24.71,24.71,0,0,0-3.48-7.15,18.37,18.37,0,0,0-1.45-1.82.84.84,0,0,1-.08-1.18A21.15,21.15,0,0,1,35.73,4a24.51,24.51,0,0,1,7.46-1C44.77,3,46.34,3,48,3Z" style="paint-order: stroke; stroke: rgb(59, 59, 59); fill: rgb(83, 176, 67);" />
  </g>
</g></g></svg>